<svg fill="none" height="128" viewBox="0 0 136 128" width="136" xmlns="http://www.w3.org/2000/svg" xmlns:xlink="http://www.w3.org/1999/xlink"><filter id="a" color-interpolation-filters="sRGB" filterUnits="userSpaceOnUse" height="128" width="128" x="4" y="0"><feFlood flood-opacity="0" result="BackgroundImageFix"/><feBlend in="SourceGraphic" in2="BackgroundImageFix" mode="normal" result="shape"/><feColorMatrix in="SourceAlpha" result="hardAlpha" type="matrix" values="0 0 0 0 0 0 0 0 0 0 0 0 0 0 0 0 0 0 127 0"/><feOffset dx="-6" dy="-6"/><feComposite in2="hardAlpha" k2="-1" k3="1" operator="arithmetic"/><feColorMatrix type="matrix" values="0 0 0 0 0 0 0 0 0 0 0 0 0 0 0 0 0 0 0.04 0"/><feBlend in2="shape" mode="normal" result="effect1_innerShadow_102_874"/></filter><filter id="b" color-interpolation-filters="sRGB" filterUnits="userSpaceOnUse" height="36" width="47" x="13" y="56"><feFlood flood-opacity="0" result="BackgroundImageFix"/><feBlend in="SourceGraphic" in2="BackgroundImageFix" mode="normal" result="shape"/><feGaussianBlur result="effect1_foregroundBlur_102_874" stdDeviation="5"/></filter><filter id="c" color-interpolation-filters="sRGB" filterUnits="userSpaceOnUse" height="36" width="47" x="75" y="56"><feFlood flood-opacity="0" result="BackgroundImageFix"/><feBlend in="SourceGraphic" in2="BackgroundImageFix" mode="normal" result="shape"/><feGaussianBlur result="effect1_foregroundBlur_102_874" stdDeviation="5"/></filter><linearGradient id="d"><stop offset="0" stop-color="#fff" stop-opacity=".3"/><stop offset=".5" stop-color="#969696" stop-opacity=".2"/><stop offset="1" stop-color="#fff" stop-opacity=".3"/></linearGradient><linearGradient id="e" gradientUnits="userSpaceOnUse" x1="2356.45" x2="3644.99" xlink:href="#d" y1="1598.87" y2="1598.87"/><linearGradient id="f" gradientUnits="userSpaceOnUse" x1="2293.42" x2="3581.96" xlink:href="#d" y1="1598.87" y2="1598.87"/><g filter="url(#a)"><path d="m132 30.2436v67.4688c.004 3.9756-.776 7.9136-2.295 11.5886-1.519 3.674-3.747 7.013-6.557 9.826s-6.147 5.044-9.82 6.567c-3.673 1.522-7.61 2.306-11.586 2.306h-67.469c-8.0252-.004-15.7208-3.193-21.3968-8.866-5.67599-5.673-8.86841-13.367-8.87619-21.3923v-67.4688c-.00385-3.9753.77606-7.9124 2.29514-11.5861 1.51907-3.6736 3.74755-7.0118 6.55785-9.82347 2.8103-2.81168 6.1473-5.04172 9.8203-6.56258 3.6729-1.520854 7.6096-2.30267622 11.585-2.30074644h67.4687c3.974-.00192658 7.909.77881944 11.581 2.29765644 3.671 1.51885 7.008 3.74604 9.819 6.55442 2.811 2.80842 5.042 6.14292 6.564 9.81332 1.523 3.6704 2.307 7.6046 2.309 11.5782z" fill="#f6d594"/></g><path d="m68.3033 49.8949-3.4908 18.3486 3.4908 2.7868z" fill="#000" opacity=".4"/><g filter="url(#b)"><path d="m41.8885 66h-10.777c-4.4798 0-8.1115 3.5817-8.1115 8s3.6317 8 8.1115 8h10.777c4.4798 0 8.1115-3.5817 8.1115-8s-3.6317-8-8.1115-8z" fill="#c140a3"/></g><g filter="url(#c)"><path d="m103.904 66h-10.8083c-4.4711 0-8.0957 3.5785-8.0957 7.9929v.0142c0 4.4144 3.6246 7.9929 8.0957 7.9929h10.8083c4.471 0 8.096-3.5785 8.096-7.9929v-.0142c0-4.4144-3.625-7.9929-8.096-7.9929z" fill="#c140a3"/></g><path d="m103.085 83c.266-.0001.528.0779.751.2245.224.1465.4.3554.508.601 1.689 3.3208 2.103 7.1517 1.163 10.7604s-3.169 6.7421-6.2595 8.8011c-3.106 2.104-6.8733 2.984-10.5824 2.47-3.7092-.514-7.1003-2.385-9.5259-5.256-.1318-.282-.1713-.599-.1129-.9052.0584-.3061.2117-.5858.4379-.7987.2262-.213.5136-.3482.821-.3864s.6189.0227.8897.1739c1.9889 2.3664 4.7737 3.9134 7.8233 4.3464 3.0496.432 6.1506-.281 8.7115-2.003 4.0133-2.6972 7.5133-8.5347 4.1003-16.0674-.121-.3455-.11-.7241.03-1.062.141-.338.402-.611.732-.7659.16-.0791.335-.1242.513-.1327z" fill="#000"/><path d="m111 51.0396c0-7.2015-5.82-13.0396-13-13.0396-7.1797 0-13 5.8381-13 13.0396v3.9208c0 7.2015 5.8203 13.0396 13 13.0396 7.18 0 13-5.8381 13-13.0396z" fill="#000"/><path d="m93.7856 47.5336c1.2637 0 2.2881-1.0244 2.2881-2.288 0-1.2637-1.0244-2.2881-2.2881-2.2881-1.2636 0-2.288 1.0244-2.288 2.2881 0 1.2636 1.0244 2.288 2.288 2.288z" fill="#fff"/><path d="m98.0244 56.3486c2.9406 0 5.3246-2.3837 5.3246-5.3242 0-2.9404-2.384-5.3242-5.3246-5.3242-2.9404 0-5.3241 2.3838-5.3241 5.3242 0 2.9405 2.3837 5.3242 5.3241 5.3242z" fill="#fff" opacity=".1"/><path d="m50 51.0396c0-7.2015-5.8203-13.0396-13-13.0396s-13 5.8381-13 13.0396v3.9208c0 7.2016 5.8203 13.0396 13 13.0396s13-5.838 13-13.0396z" fill="#000"/><path d="m32.7856 47.5336c1.2637 0 2.2881-1.0244 2.2881-2.288 0-1.2637-1.0244-2.2881-2.2881-2.2881-1.2636 0-2.288 1.0244-2.288 2.2881 0 1.2636 1.0244 2.288 2.288 2.288z" fill="#fff"/><path d="m37.0244 56.3486c2.9405 0 5.3242-2.3837 5.3242-5.3242 0-2.9404-2.3837-5.3242-5.3242-5.3242-2.9404 0-5.3241 2.3838-5.3241 5.3242 0 2.9405 2.3837 5.3242 5.3241 5.3242z" fill="#fff" opacity=".1"/><path d="m108.109 31.3614h-18.8794c-6.8157 0-12.3409 5.5029-12.3409 12.2911v18.8032c0 6.7882 5.5252 12.2911 12.3409 12.2911h18.8794c6.816 0 12.341-5.5029 12.341-12.2911v-18.8032c0-6.7882-5.525-12.2911-12.341-12.2911z" fill="url(#e)"/><path d="m45.0767 31.3614h-18.8795c-6.8157 0-12.3409 5.5029-12.3409 12.2911v18.8032c0 6.7882 5.5252 12.2911 12.3409 12.2911h18.8795c6.8157 0 12.3409-5.5029 12.3409-12.2911v-18.8032c0-6.7882-5.5252-12.2911-12.3409-12.2911z" fill="url(#f)"/><g fill="#000"><path d="m44.8437 77.1815h-18.8794c-3.8998-.0193-7.6343-1.5707-10.3919-4.3172-2.7576-2.7464-4.3154-6.4659-4.3347-10.3499v-18.8473c.0232-3.8828 1.5821-7.6001 4.3389-10.3457s6.4891-4.2983 10.3877-4.3214h18.8794c3.9125.0194 7.6581 1.581 10.4178 4.3432 2.7597 2.7623 4.3089 6.5005 4.3088 10.3973v18.7152c.0078 1.9311-.3674 3.8446-1.104 5.6309s-1.8202 3.4101-3.1884 4.7783c-1.3683 1.3682-2.9943 2.4538-4.7849 3.1946-1.7906.7407-3.7104 1.122-5.6493 1.122zm-18.8794-43.3853c-1.3035-.002-2.5946.2518-3.7996.7468-1.205.4951-2.3002 1.2216-3.2233 2.1382s-1.6558 2.0053-2.1564 3.204c-.5006 1.1986-.7593 2.4837-.7612 3.7819v18.7886c.0039 2.6129 1.0478 5.1176 2.9029 6.9652 1.855 1.8476 4.3699 2.8872 6.9934 2.8911h18.9236c2.6235-.0039 5.1384-1.0435 6.9934-2.8911 1.8551-1.8476 2.899-4.3523 2.9029-6.9652v-18.7886c-.0039-2.6142-1.0473-5.1204-2.9019-6.9704-1.8547-1.8499-4.3696-2.8928-6.9944-2.9005z"/><path d="m108.109 77.1815h-18.8646c-3.8998-.0193-7.6343-1.5707-10.3919-4.3172-2.7576-2.7464-4.3153-6.4659-4.3347-10.3499v-18.8473c.0232-3.8828 1.5822-7.6001 4.339-10.3457 2.7567-2.7456 6.489-4.2983 10.3876-4.3214h18.8646c3.911.0232 7.655 1.586 10.414 4.3475 2.758 2.7614 4.309 6.4974 4.313 10.393v18.7152c-.004 3.8942-1.555 7.6287-4.314 10.3878-2.76 2.7591-6.503 4.3186-10.413 4.338zm-18.8646-43.3853c-2.626.0038-5.1431 1.0455-6.9986 2.8963-1.8555 1.8507-2.8977 4.3592-2.8977 6.9746v18.7886c.0039 2.6129 1.0478 5.1176 2.9029 6.9652s4.3699 2.8872 6.9934 2.8911h18.8646c2.624-.0039 5.138-1.0435 6.994-2.8911 1.855-1.8476 2.899-4.3523 2.902-6.9652v-18.7886c0-2.6154-1.042-5.1239-2.897-6.9746-1.856-1.8508-4.373-2.8925-6.999-2.8963z"/><path d="m76.8888 47.7006h-19.7042v4.8841h19.7042z"/><path d="m133.38 55.3715h-12.93c-.618-.0477-1.194-.3257-1.615-.7784s-.654-1.0469-.654-1.6637.233-1.2109.654-1.6637c.421-.4527.997-.7307 1.615-.7784h12.93c.617.0477 1.194.3257 1.615.7784.42.4528.654 1.0469.654 1.6637s-.234 1.211-.654 1.6637c-.421.4527-.998.7307-1.615.7784z"/><path d="m13.6234 55.3715h-11.35423c-.61748-.0477-1.19416-.3257-1.614829-.7784-.420666-.4527-.654341-1.0469-.654341-1.6637s.233675-1.2109.654341-1.6637c.420669-.4527.997349-.7307 1.614829-.7784h11.35423c.6175.0477 1.1941.3257 1.6148.7784.4207.4528.6543 1.0469.6543 1.6637s-.2336 1.211-.6543 1.6637-.9973.7307-1.6148.7784z"/></g></svg>